<svg id="Layer_1" data-name="Layer 1" xmlns="http://www.w3.org/2000/svg" viewBox="0 0 19.5 21.5"><defs><style>.cls-1{fill:#222;}</style></defs><path class="cls-1" d="M19,22.75H5A2.75,2.75,0,0,1,2.25,20V6a.74.74,0,0,1,.15-.45l3-4a.74.74,0,0,1,.6-.3H18a.74.74,0,0,1,.6.3l3,4a.74.74,0,0,1,.15.45V20A2.75,2.75,0,0,1,19,22.75ZM3.75,6.25V20A1.25,1.25,0,0,0,5,21.25H19A1.25,1.25,0,0,0,20.25,20V6.25l-2.63-3.5H6.38Z" transform="translate(-2.25 -1.25)"/><path class="cls-1" d="M21,6.75H3a.75.75,0,0,1,0-1.5H21a.75.75,0,0,1,0,1.5Z" transform="translate(-2.25 -1.25)"/><path class="cls-1" d="M12,14.75A4.75,4.75,0,0,1,7.25,10a.75.75,0,0,1,1.5,0,3.25,3.25,0,0,0,6.5,0,.75.75,0,0,1,1.5,0A4.75,4.75,0,0,1,12,14.75Z" transform="translate(-2.25 -1.25)"/></svg>