<svg id="Layer_1" data-name="Layer 1" xmlns="http://www.w3.org/2000/svg" viewBox="0 0 16 15.92"><defs><style>.cls-1{fill:#222;}</style></defs><path class="cls-1" d="M8.19,1.11a.62.62,0,0,0-.38,0l-6,2.39,2.4,1L10.4,2Zm3.56,1.43L5.6,5,8,6,14.15,3.5ZM15,4.24,8.5,6.84v7.92l6.5-2.6V4.24ZM7.5,14.76V6.84L1,4.24v7.92ZM7.44.18a1.55,1.55,0,0,1,1.12,0L15.69,3A.49.49,0,0,1,16,3.5v8.66a1,1,0,0,1-.63.93L8.19,16a.5.5,0,0,1-.38,0L.63,13.09A1,1,0,0,1,0,12.16V3.5A.49.49,0,0,1,.31,3Z" transform="translate(0 -0.08)"/></svg>