<?xml version="1.0" standalone="no"?>
<!DOCTYPE svg PUBLIC "-//W3C//DTD SVG 20010904//EN"
 "http://www.w3.org/TR/2001/REC-SVG-20010904/DTD/svg10.dtd">
<svg version="1.0" xmlns="http://www.w3.org/2000/svg"
 width="512.000000pt" height="512.000000pt" viewBox="0 0 512.000000 512.000000"
 preserveAspectRatio="xMidYMid meet">

<g transform="translate(0.000000,512.000000) scale(0.100000,-0.100000)"
fill="#222222" stroke="none">
<path d="M3884 5106 c-63 -28 -100 -106 -82 -173 8 -30 57 -86 246 -275 l237
-238 -1615 0 c-1552 0 -1619 -1 -1708 -19 -260 -54 -478 -240 -578 -492 -49
-126 -54 -191 -54 -722 0 -470 1 -492 20 -532 23 -48 80 -85 132 -85 42 0 96
28 123 64 19 27 20 45 25 559 5 484 7 536 24 581 59 156 165 261 322 322 47
18 111 19 1679 22 l1630 2 -237 -237 c-143 -144 -239 -248 -242 -263 -16 -76
-10 -107 32 -151 41 -44 84 -57 149 -44 33 6 84 53 410 378 401 399 413 414
398 494 -6 33 -53 85 -383 417 -212 212 -391 384 -409 392 -40 17 -79 17 -119
0z"/>
<path d="M4605 2563 c-32 -9 -74 -42 -89 -72 -12 -22 -15 -127 -18 -556 -5
-580 -2 -556 -67 -683 -31 -62 -131 -157 -201 -192 -125 -63 -30 -60 -1790
-60 l-1604 0 236 238 c144 144 239 247 242 262 16 76 10 107 -32 151 -41 44
-84 57 -149 44 -33 -6 -84 -53 -410 -378 -401 -399 -413 -414 -398 -494 6 -33
53 -85 388 -421 407 -408 413 -412 493 -398 47 9 98 59 112 109 21 76 10 92
-246 350 l-237 237 1608 0 c1113 0 1630 3 1679 11 280 43 513 229 617 491 55
139 56 150 56 723 0 512 -1 531 -20 564 -11 19 -32 43 -46 53 -27 20 -89 31
-124 21z"/>
</g>
</svg>
