<svg id="Layer_1" data-name="Layer 1" xmlns="http://www.w3.org/2000/svg" viewBox="0 0 16 16"><defs><style>.cls-1{fill:#222;}</style></defs><path class="cls-1" d="M5.5,9.51A2.05,2.05,0,0,0,7.68,11.3V12h.6v-.71c1.4-.1,2.22-.84,2.22-1.93S9.87,7.86,8.76,7.6l-.48-.11V5.57a1.14,1.14,0,0,1,1.08.85h1.05A2,2,0,0,0,8.28,4.7V4h-.6v.72a2,2,0,0,0-2,1.85c0,.9.61,1.47,1.62,1.71l.39.1v2a1.2,1.2,0,0,1-1.11-.9ZM7.68,7.34c-.59-.13-.91-.41-.91-.83a1,1,0,0,1,.91-.93V7.34Zm.69,1.2c.72.16,1.05.43,1.05.91s-.41.91-1.14,1V8.52Z"/><path class="cls-1" d="M8,15a7,7,0,1,1,7-7A7,7,0,0,1,8,15Zm0,1A8,8,0,1,0,0,8,8,8,0,0,0,8,16Z"/><path class="cls-1" d="M8,13.5A5.5,5.5,0,1,1,13.5,8,5.5,5.5,0,0,1,8,13.5ZM8,14A6,6,0,1,0,2,8,6,6,0,0,0,8,14Z"/></svg>