<?xml version="1.0" encoding="UTF-8"?>
<!DOCTYPE svg PUBLIC "-//W3C//DTD SVG 1.1//EN" "http://www.w3.org/Graphics/SVG/1.1/DTD/svg11.dtd">
<svg xmlns="http://www.w3.org/2000/svg" version="1.1" width="512px" height="512px" style="shape-rendering:geometricPrecision; text-rendering:geometricPrecision; image-rendering:optimizeQuality; fill-rule:evenodd; clip-rule:evenodd" xmlns:xlink="http://www.w3.org/1999/xlink">
<g><path style="opacity:0.961" fill="#000000" d="M 236.5,13.5 C 338.538,10.088 415.705,51.7547 468,138.5C 503.248,207.169 506.915,277.502 479,349.5C 448.79,417.711 398.29,463.544 327.5,487C 244.604,510.02 169.271,495.353 101.5,443C 35.6832,385.489 6.84992,312.989 15,225.5C 27.2334,144.805 68.4001,83.9716 138.5,43C 169.327,26.6324 201.994,16.7991 236.5,13.5 Z M 251.5,42.5 C 260.166,42.2 268.166,44.3667 275.5,49C 288.526,58.0225 298.692,69.5225 306,83.5C 310.918,92.8338 315.418,102.334 319.5,112C 276.833,112.667 234.167,112.667 191.5,112C 198.15,94.8583 206.984,79.0249 218,64.5C 226.739,53.2237 237.906,45.8903 251.5,42.5 Z M 185.5,54.5 C 186.376,54.3691 187.043,54.7025 187.5,55.5C 175.705,72.8518 166.372,91.5185 159.5,111.5C 139.175,112.666 118.842,112.833 98.5,112C 122.897,85.8059 151.897,66.6393 185.5,54.5 Z M 323.5,54.5 C 358.082,66.1204 387.749,85.2871 412.5,112C 392.158,112.833 371.825,112.666 351.5,111.5C 344.524,91.2161 335.191,72.2161 323.5,54.5 Z M 74.5,142.5 C 99.8333,142.5 125.167,142.5 150.5,142.5C 143.089,174.627 138.755,207.127 137.5,240C 106.168,240.5 74.8351,240.667 43.5,240.5C 46.217,205.352 56.5504,172.685 74.5,142.5 Z M 181.5,142.5 C 230.833,142.5 280.167,142.5 329.5,142.5C 337.767,174.634 342.434,207.3 343.5,240.5C 284.833,240.5 226.167,240.5 167.5,240.5C 168.343,207.269 173.009,174.602 181.5,142.5 Z M 360.5,142.5 C 385.842,142.167 411.175,142.5 436.5,143.5C 454.654,173.297 464.987,205.63 467.5,240.5C 436.165,240.667 404.832,240.5 373.5,240C 372.081,207.149 367.747,174.649 360.5,142.5 Z M 43.5,270.5 C 74.8351,270.333 106.168,270.5 137.5,271C 138.919,303.851 143.253,336.351 150.5,368.5C 125.158,368.833 99.8246,368.5 74.5,367.5C 56.3443,337.698 46.011,305.365 43.5,270.5 Z M 167.5,270.5 C 226.167,270.5 284.833,270.5 343.5,270.5C 342.679,303.402 338.013,335.735 329.5,367.5C 280.167,368.833 230.833,368.833 181.5,367.5C 172.916,335.745 168.249,303.411 167.5,270.5 Z M 373.5,270.5 C 404.833,270.5 436.167,270.5 467.5,270.5C 464.986,305.375 454.652,337.708 436.5,367.5C 411.175,368.5 385.842,368.833 360.5,368.5C 367.953,336.208 372.286,303.541 373.5,270.5 Z M 98.5,399.5 C 118.671,398.172 139.004,398.172 159.5,399.5C 166.372,419.482 175.705,438.148 187.5,455.5C 187.167,455.833 186.833,456.167 186.5,456.5C 152.501,444.513 123.168,425.513 98.5,399.5 Z M 191.5,399.5 C 233.998,398.335 276.665,398.169 319.5,399C 312.85,416.142 304.016,431.975 293,446.5C 268,475.833 243,475.833 218,446.5C 207.085,432.003 198.252,416.336 191.5,399.5 Z M 323.5,456.5 C 335.191,438.784 344.524,419.784 351.5,399.5C 371.825,398.334 392.158,398.167 412.5,399C 387.749,425.713 358.082,444.88 323.5,456.5 Z"/></g>
</svg>
