<?xml version="1.0" standalone="no"?>
<!DOCTYPE svg PUBLIC "-//W3C//DTD SVG 20010904//EN"
 "http://www.w3.org/TR/2001/REC-SVG-20010904/DTD/svg10.dtd">
<svg version="1.0" xmlns="http://www.w3.org/2000/svg"
 width="512.000000pt" height="512.000000pt" viewBox="0 0 512.000000 512.000000"
 preserveAspectRatio="xMidYMid meet">

<g transform="translate(0.000000,512.000000) scale(0.100000,-0.100000)"
fill="#000000" stroke="none">
<path d="M2430 5114 c-127 -14 -217 -29 -300 -50 -305 -76 -578 -231 -805
-459 -307 -307 -483 -696 -511 -1133 -7 -100 -8 -103 -33 -108 -198 -43 -327
-134 -396 -279 -60 -128 -60 -126 -60 -750 0 -513 2 -576 18 -634 56 -203 196
-338 400 -385 50 -12 122 -16 276 -16 l208 0 25 25 c14 14 28 39 32 56 8 41 8
1867 0 1908 -4 17 -18 42 -31 56 -23 23 -33 25 -137 27 l-111 3 3 80 c12 287
116 585 289 828 117 164 328 352 510 454 212 118 504 193 753 193 249 0 541
-75 753 -193 182 -102 393 -290 510 -454 173 -243 277 -541 289 -828 l3 -80
-111 -3 c-105 -2 -114 -4 -137 -28 -16 -16 -28 -42 -32 -67 -3 -23 -5 -464 -3
-980 l3 -939 33 -29 c32 -28 35 -29 142 -29 l109 0 -5 -52 c-28 -289 -96 -465
-228 -586 -130 -118 -351 -189 -647 -208 l-106 -7 -6 62 c-8 74 -24 108 -71
149 -55 48 -106 54 -464 50 -287 -3 -320 -5 -352 -22 -49 -26 -69 -46 -91 -88
-17 -33 -19 -61 -19 -242 0 -217 4 -243 48 -290 60 -64 71 -66 452 -66 339 0
347 0 390 23 63 31 100 88 107 165 l6 61 51 5 c28 3 103 10 166 16 431 41 695
190 835 470 63 126 97 255 118 449 l12 115 71 17 c202 50 336 180 392 381 15
57 17 122 17 638 0 527 -2 580 -18 640 -60 210 -198 332 -438 384 -25 5 -26 8
-33 108 -53 823 -655 1490 -1466 1624 -85 14 -345 26 -410 18z m-1340 -2774
l0 -850 -97 0 c-298 1 -433 86 -472 295 -15 80 -15 1030 0 1110 22 120 85 206
185 252 64 29 137 40 277 42 l107 1 0 -850z m3290 816 c102 -38 177 -115 207
-214 16 -52 18 -106 16 -602 -2 -520 -3 -548 -23 -613 -18 -57 -31 -79 -78
-127 -83 -84 -136 -102 -324 -108 l-148 -4 0 847 0 847 153 -5 c107 -3 165 -9
197 -21z m-1450 -2806 l0 -160 -305 0 -305 0 0 160 0 160 305 0 305 0 0 -160z"/>
</g>
</svg>
