<svg id="Layer_1" data-name="Layer 1" xmlns="http://www.w3.org/2000/svg" viewBox="0 0 22.4 19.73"><defs><style>.cls-1{fill:#222;}</style></defs><path class="cls-1" d="M12,22a.75.75,0,0,1-.53-.22L2.63,12.92a6.25,6.25,0,0,1,8.84-8.84l.53.53.53-.53,0,0A6.2,6.2,0,0,1,17,2.25h0a6.21,6.21,0,0,1,4.42,1.83h0a6.25,6.25,0,0,1,0,8.84l-8.84,8.84A.75.75,0,0,1,12,22ZM7.05,3.75a4.75,4.75,0,0,0-3.36,8.11L12,20.17l8.31-8.31a4.76,4.76,0,0,0,0-6.72h0A4.71,4.71,0,0,0,17,3.75h0a4.71,4.71,0,0,0-3.36,1.39h0l-1.05,1a.77.77,0,0,1-1.06,0L10.41,5.14A4.72,4.72,0,0,0,7.05,3.75Z" transform="translate(-0.8 -2.25)"/></svg>