<svg id="Layer_1" data-name="Layer 1" xmlns="http://www.w3.org/2000/svg" viewBox="0 0 16 15.29"><defs><style>.cls-1{fill:#222;}</style></defs><path class="cls-1" d="M14,1a1,1,0,0,1,1,1v8a1,1,0,0,1-1,1H4.41A2,2,0,0,0,3,11.59l-2,2V2A1,1,0,0,1,2,1ZM2,0A2,2,0,0,0,0,2V14.79a.5.5,0,0,0,.5.5.5.5,0,0,0,.35-.14l2.86-2.86a1,1,0,0,1,.7-.29H14a2,2,0,0,0,2-2V2a2,2,0,0,0-2-2Z"/><path class="cls-1" d="M3,3.5A.5.5,0,0,1,3.5,3h9a.5.5,0,0,1,0,1h-9A.5.5,0,0,1,3,3.5ZM3,6a.5.5,0,0,1,.5-.5h9a.5.5,0,0,1,0,1h-9A.5.5,0,0,1,3,6ZM3,8.5A.5.5,0,0,1,3.5,8h5a.5.5,0,0,1,0,1h-5A.5.5,0,0,1,3,8.5Z"/></svg>