<svg id="Layer_1" data-name="Layer 1" xmlns="http://www.w3.org/2000/svg" viewBox="0 0 17.5 19.5"><defs><style>.cls-1{fill:#222;}</style></defs><path class="cls-1" d="M20,21.75a.76.76,0,0,1-.75-.75V19A3.26,3.26,0,0,0,16,15.75H8A3.26,3.26,0,0,0,4.75,19v2a.75.75,0,0,1-1.5,0V19A4.75,4.75,0,0,1,8,14.25h8A4.75,4.75,0,0,1,20.75,19v2A.76.76,0,0,1,20,21.75Z" transform="translate(-3.25 -2.25)"/><path class="cls-1" d="M12,11.75A4.75,4.75,0,1,1,16.75,7,4.75,4.75,0,0,1,12,11.75Zm0-8A3.25,3.25,0,1,0,15.25,7,3.26,3.26,0,0,0,12,3.75Z" transform="translate(-3.25 -2.25)"/></svg>