<?xml version="1.0" encoding="UTF-8"?>
<!DOCTYPE svg PUBLIC "-//W3C//DTD SVG 1.1//EN" "http://www.w3.org/Graphics/SVG/1.1/DTD/svg11.dtd">
<svg xmlns="http://www.w3.org/2000/svg" version="1.1" width="512px" height="512px" style="shape-rendering:geometricPrecision; text-rendering:geometricPrecision; image-rendering:optimizeQuality; fill-rule:evenodd; clip-rule:evenodd" xmlns:xlink="http://www.w3.org/1999/xlink">
<g><path style="opacity:1" fill="#9b9b9b" d="M 182.5,63.5 C 183.947,62.1148 184.947,62.4482 185.5,64.5C 184.609,63.8902 183.609,63.5569 182.5,63.5 Z"/></g>
<g><path style="opacity:1" fill="#0f0f0f" d="M 182.5,63.5 C 183.609,63.5569 184.609,63.8902 185.5,64.5C 199.059,88.611 212.392,112.944 225.5,137.5C 202.729,148.383 181.395,161.55 161.5,177C 147.929,188.562 137.429,202.396 130,218.5C 127.882,223.638 126.715,228.971 126.5,234.5C 151.966,238.894 173.299,250.561 190.5,269.5C 190.427,271.027 191.094,272.027 192.5,272.5C 193.833,273.167 194.833,274.167 195.5,275.5C 195.427,277.027 196.094,278.027 197.5,278.5C 208.034,290.907 214.867,305.24 218,321.5C 225.327,362.853 213.494,397.686 182.5,426C 155.6,446.88 125.6,453.38 92.5,445.5C 90.4855,444.076 88.1522,443.41 85.5,443.5C 77.0909,441.703 69.4242,438.37 62.5,433.5C 62.0269,432.094 61.0269,431.427 59.5,431.5C 56.8646,430.189 54.5313,428.522 52.5,426.5C 52.0269,425.094 51.0269,424.427 49.5,424.5C 47.8333,423.5 46.5,422.167 45.5,420.5C 45.0269,419.094 44.0269,418.427 42.5,418.5C 17.528,395.223 3.19465,366.556 -0.5,332.5C -0.5,319.5 -0.5,306.5 -0.5,293.5C 1.00801,279.293 3.67467,265.293 7.5,251.5C 8.92381,249.485 9.59047,247.152 9.5,244.5C 16.0168,220.571 26.3501,198.571 40.5,178.5C 41.9063,178.027 42.573,177.027 42.5,175.5C 46.2025,168.768 50.8692,162.768 56.5,157.5C 57.9063,157.027 58.573,156.027 58.5,154.5C 60.1667,152.167 62.1667,150.167 64.5,148.5C 65.9063,148.027 66.573,147.027 66.5,145.5C 66.8333,144.5 67.5,143.833 68.5,143.5C 74.7762,138.893 80.4428,133.559 85.5,127.5C 85.5,126.833 85.8333,126.5 86.5,126.5C 89.0892,125.581 91.0892,123.914 92.5,121.5C 92.5,120.833 92.8333,120.5 93.5,120.5C 96.0892,119.581 98.0892,117.914 99.5,115.5C 124.97,94.9171 152.637,77.5838 182.5,63.5 Z M 176.5,139.5 C 174.973,139.427 173.973,140.094 173.5,141.5C 165.659,145.343 158.659,150.343 152.5,156.5C 150.251,157.08 148.585,158.413 147.5,160.5C 146.5,160.833 145.833,161.5 145.5,162.5C 142.911,163.419 140.911,165.086 139.5,167.5C 136.5,169.833 133.833,172.5 131.5,175.5C 130.094,175.973 129.427,176.973 129.5,178.5C 126.364,181.429 123.697,184.762 121.5,188.5C 120.094,188.973 119.427,189.973 119.5,191.5C 106.711,210.069 101.377,230.736 103.5,253.5C 122.059,254.471 139.392,259.471 155.5,268.5C 155.973,269.906 156.973,270.573 158.5,270.5C 158.973,271.906 159.973,272.573 161.5,272.5C 197.808,303.069 206.808,340.402 188.5,384.5C 187.094,384.973 186.427,385.973 186.5,387.5C 185.662,387.842 185.328,388.508 185.5,389.5C 184.094,389.973 183.427,390.973 183.5,392.5C 181.529,394.808 179.529,397.142 177.5,399.5C 176.094,399.973 175.427,400.973 175.5,402.5C 173.833,403.5 172.5,404.833 171.5,406.5C 168.911,407.419 166.911,409.086 165.5,411.5C 138.941,428.524 110.941,431.024 81.5,419C 65.5388,410.538 52.2055,399.038 41.5,384.5C 41.573,382.973 40.9063,381.973 39.5,381.5C 39.573,379.973 38.9063,378.973 37.5,378.5C 23.4539,352.957 18.2872,325.624 22,296.5C 25.8234,250.334 42.1567,209.334 71,173.5C 99.9533,139.863 134.12,113.03 173.5,93C 174.635,92.2506 175.635,92.4173 176.5,93.5C 182.635,104.937 188.635,116.437 194.5,128C 188.634,132.096 182.634,135.93 176.5,139.5 Z"/></g>
<g><path style="opacity:1" fill="#0f0f0f" d="M 511.5,135.5 C 511.5,136.5 511.5,137.5 511.5,138.5C 481.915,151.595 455.748,169.595 433,192.5C 422.46,204.583 415.96,218.583 413.5,234.5C 440.038,239.431 462.038,252.098 479.5,272.5C 479.738,274.404 480.738,275.738 482.5,276.5C 484.984,278.8 486.984,281.467 488.5,284.5C 488.427,286.027 489.094,287.027 490.5,287.5C 504.736,310.516 509.569,335.516 505,362.5C 498.4,398.758 478.566,424.925 445.5,441C 412.433,452.934 380.433,450.601 349.5,434C 346.98,432.303 344.647,430.47 342.5,428.5C 342.027,427.094 341.027,426.427 339.5,426.5C 338.833,426.5 338.5,426.167 338.5,425.5C 338.027,424.094 337.027,423.427 335.5,423.5C 334.167,422.833 333.167,421.833 332.5,420.5C 332.027,419.094 331.027,418.427 329.5,418.5C 299.998,390.547 285.332,356.047 285.5,315C 285.638,295.421 287.971,276.255 292.5,257.5C 293.924,255.485 294.59,253.152 294.5,250.5C 294.232,248.901 294.566,247.568 295.5,246.5C 296.924,244.485 297.59,242.152 297.5,239.5C 306.48,209.526 321.147,182.859 341.5,159.5C 342.906,159.027 343.573,158.027 343.5,156.5C 345.167,154.167 347.167,152.167 349.5,150.5C 350.906,150.027 351.573,149.027 351.5,147.5C 352.5,145.833 353.833,144.5 355.5,143.5C 361.776,138.893 367.443,133.559 372.5,127.5C 372.5,126.833 372.833,126.5 373.5,126.5C 376.089,125.581 378.089,123.914 379.5,121.5C 379.833,120.5 380.5,119.833 381.5,119.5C 383.749,118.92 385.415,117.587 386.5,115.5C 412.373,94.5165 440.54,76.8498 471,62.5C 471.772,62.6448 472.439,62.9781 473,63.5C 485.608,87.7205 498.441,111.721 511.5,135.5 Z M 432.5,162.5 C 429.911,163.419 427.911,165.086 426.5,167.5C 424.167,169.167 422.167,171.167 420.5,173.5C 418.738,174.262 417.738,175.596 417.5,177.5C 416.167,178.167 415.167,179.167 414.5,180.5C 413.094,180.973 412.427,181.973 412.5,183.5C 410.1,185.296 408.433,187.63 407.5,190.5C 406.094,190.973 405.427,191.973 405.5,193.5C 401.465,198.903 398.465,204.903 396.5,211.5C 395.463,212.93 394.796,214.597 394.5,216.5C 392.704,222.02 391.704,227.687 391.5,233.5C 390.835,236.649 390.502,239.982 390.5,243.5C 390.514,247.239 391.18,250.572 392.5,253.5C 412.106,254.924 430.106,260.924 446.5,271.5C 446.973,272.906 447.973,273.573 449.5,273.5C 449.833,274.5 450.5,275.167 451.5,275.5C 451.973,276.906 452.973,277.573 454.5,277.5C 488.477,312.344 493.477,351.01 469.5,393.5C 468.094,393.973 467.427,394.973 467.5,396.5C 464.041,399.415 461.041,402.748 458.5,406.5C 455.911,407.419 453.911,409.086 452.5,411.5C 450.223,412.449 448.223,413.782 446.5,415.5C 444.973,415.427 443.973,416.094 443.5,417.5C 401.273,434.86 364.94,426.527 334.5,392.5C 334.573,390.973 333.906,389.973 332.5,389.5C 311.201,360.296 303.367,327.629 309,291.5C 313.952,244.283 331.952,202.949 363,167.5C 391.471,136.341 424.471,111.341 462,92.5C 468.995,103.816 475.495,115.482 481.5,127.5C 469.87,134.986 458.203,142.486 446.5,150C 441.572,153.949 436.906,158.116 432.5,162.5 Z"/></g>
<g><path style="opacity:1" fill="#5a5a5a" d="M 99.5,115.5 C 98.0892,117.914 96.0892,119.581 93.5,120.5C 94.9108,118.086 96.9108,116.419 99.5,115.5 Z"/></g>
<g><path style="opacity:1" fill="#5b5b5b" d="M 386.5,115.5 C 385.415,117.587 383.749,118.92 381.5,119.5C 382.585,117.413 384.251,116.08 386.5,115.5 Z"/></g>
<g><path style="opacity:1" fill="#5e5e5e" d="M 92.5,121.5 C 91.0892,123.914 89.0892,125.581 86.5,126.5C 87.9108,124.086 89.9108,122.419 92.5,121.5 Z"/></g>
<g><path style="opacity:1" fill="#575757" d="M 379.5,121.5 C 378.089,123.914 376.089,125.581 373.5,126.5C 374.911,124.086 376.911,122.419 379.5,121.5 Z"/></g>
<g><path style="opacity:1" fill="#7b7b7b" d="M 176.5,139.5 C 176.027,140.906 175.027,141.573 173.5,141.5C 173.973,140.094 174.973,139.427 176.5,139.5 Z"/></g>
<g><path style="opacity:1" fill="#595959" d="M 85.5,127.5 C 80.4428,133.559 74.7762,138.893 68.5,143.5C 73.5572,137.441 79.2238,132.107 85.5,127.5 Z"/></g>
<g><path style="opacity:1" fill="#4c4c4c" d="M 372.5,127.5 C 367.443,133.559 361.776,138.893 355.5,143.5C 360.557,137.441 366.224,132.107 372.5,127.5 Z"/></g>
<g><path style="opacity:1" fill="#8a8a8a" d="M 66.5,145.5 C 66.573,147.027 65.9063,148.027 64.5,148.5C 64.427,146.973 65.0937,145.973 66.5,145.5 Z"/></g>
<g><path style="opacity:1" fill="#949494" d="M 351.5,147.5 C 351.573,149.027 350.906,150.027 349.5,150.5C 349.427,148.973 350.094,147.973 351.5,147.5 Z"/></g>
<g><path style="opacity:1" fill="#8c8c8c" d="M 58.5,154.5 C 58.573,156.027 57.9063,157.027 56.5,157.5C 56.427,155.973 57.0937,154.973 58.5,154.5 Z"/></g>
<g><path style="opacity:1" fill="#959595" d="M 343.5,156.5 C 343.573,158.027 342.906,159.027 341.5,159.5C 341.427,157.973 342.094,156.973 343.5,156.5 Z"/></g>
<g><path style="opacity:1" fill="#595959" d="M 152.5,156.5 C 151.415,158.587 149.749,159.92 147.5,160.5C 148.585,158.413 150.251,157.08 152.5,156.5 Z"/></g>
<g><path style="opacity:1" fill="#646464" d="M 145.5,162.5 C 144.089,164.914 142.089,166.581 139.5,167.5C 140.911,165.086 142.911,163.419 145.5,162.5 Z"/></g>
<g><path style="opacity:1" fill="#676767" d="M 432.5,162.5 C 431.089,164.914 429.089,166.581 426.5,167.5C 427.911,165.086 429.911,163.419 432.5,162.5 Z"/></g>
<g><path style="opacity:1" fill="#818181" d="M 420.5,173.5 C 420.262,175.404 419.262,176.738 417.5,177.5C 417.738,175.596 418.738,174.262 420.5,173.5 Z"/></g>
<g><path style="opacity:1" fill="#929292" d="M 131.5,175.5 C 131.573,177.027 130.906,178.027 129.5,178.5C 129.427,176.973 130.094,175.973 131.5,175.5 Z"/></g>
<g><path style="opacity:1" fill="#959595" d="M 42.5,175.5 C 42.573,177.027 41.9063,178.027 40.5,178.5C 40.427,176.973 41.0937,175.973 42.5,175.5 Z"/></g>
<g><path style="opacity:1" fill="#888888" d="M 414.5,180.5 C 414.573,182.027 413.906,183.027 412.5,183.5C 412.427,181.973 413.094,180.973 414.5,180.5 Z"/></g>
<g><path style="opacity:1" fill="#959595" d="M 121.5,188.5 C 121.573,190.027 120.906,191.027 119.5,191.5C 119.427,189.973 120.094,188.973 121.5,188.5 Z"/></g>
<g><path style="opacity:1" fill="#878787" d="M 407.5,190.5 C 407.573,192.027 406.906,193.027 405.5,193.5C 405.427,191.973 406.094,190.973 407.5,190.5 Z"/></g>
<g><path style="opacity:1" fill="#7c7c7c" d="M 396.5,211.5 C 396.88,213.698 396.213,215.365 394.5,216.5C 394.796,214.597 395.463,212.93 396.5,211.5 Z"/></g>
<g><path style="opacity:1" fill="#5e5e5e" d="M 297.5,239.5 C 297.59,242.152 296.924,244.485 295.5,246.5C 295.41,243.848 296.076,241.515 297.5,239.5 Z"/></g>
<g><path style="opacity:1" fill="#828282" d="M 391.5,233.5 C 391.207,240.255 391.54,246.922 392.5,253.5C 391.18,250.572 390.514,247.239 390.5,243.5C 390.502,239.982 390.835,236.649 391.5,233.5 Z"/></g>
<g><path style="opacity:1" fill="#6e6e6e" d="M 9.5,244.5 C 9.59047,247.152 8.92381,249.485 7.5,251.5C 7.40953,248.848 8.07619,246.515 9.5,244.5 Z"/></g>
<g><path style="opacity:1" fill="#636363" d="M 294.5,250.5 C 294.59,253.152 293.924,255.485 292.5,257.5C 292.41,254.848 293.076,252.515 294.5,250.5 Z"/></g>
<g><path style="opacity:1" fill="#989898" d="M 155.5,268.5 C 157.027,268.427 158.027,269.094 158.5,270.5C 156.973,270.573 155.973,269.906 155.5,268.5 Z"/></g>
<g><path style="opacity:1" fill="#8f8f8f" d="M 190.5,269.5 C 191.906,269.973 192.573,270.973 192.5,272.5C 191.094,272.027 190.427,271.027 190.5,269.5 Z"/></g>
<g><path style="opacity:1" fill="#929292" d="M 158.5,270.5 C 160.027,270.427 161.027,271.094 161.5,272.5C 159.973,272.573 158.973,271.906 158.5,270.5 Z"/></g>
<g><path style="opacity:1" fill="#909090" d="M 446.5,271.5 C 448.027,271.427 449.027,272.094 449.5,273.5C 447.973,273.573 446.973,272.906 446.5,271.5 Z"/></g>
<g><path style="opacity:1" fill="#888888" d="M 479.5,272.5 C 481.262,273.262 482.262,274.596 482.5,276.5C 480.738,275.738 479.738,274.404 479.5,272.5 Z"/></g>
<g><path style="opacity:1" fill="#7b7b7b" d="M 451.5,275.5 C 453.027,275.427 454.027,276.094 454.5,277.5C 452.973,277.573 451.973,276.906 451.5,275.5 Z"/></g>
<g><path style="opacity:1" fill="#7e7e7e" d="M 195.5,275.5 C 196.906,275.973 197.573,276.973 197.5,278.5C 196.094,278.027 195.427,277.027 195.5,275.5 Z"/></g>
<g><path style="opacity:1" fill="#868686" d="M 488.5,284.5 C 489.906,284.973 490.573,285.973 490.5,287.5C 489.094,287.027 488.427,286.027 488.5,284.5 Z"/></g>
<g><path style="opacity:1" fill="#848484" d="M 37.5,378.5 C 38.9063,378.973 39.573,379.973 39.5,381.5C 38.0937,381.027 37.427,380.027 37.5,378.5 Z"/></g>
<g><path style="opacity:1" fill="#828282" d="M 39.5,381.5 C 40.9063,381.973 41.573,382.973 41.5,384.5C 40.0937,384.027 39.427,383.027 39.5,381.5 Z"/></g>
<g><path style="opacity:1" fill="#989898" d="M 188.5,384.5 C 188.573,386.027 187.906,387.027 186.5,387.5C 186.427,385.973 187.094,384.973 188.5,384.5 Z"/></g>
<g><path style="opacity:1" fill="#898989" d="M 332.5,389.5 C 333.906,389.973 334.573,390.973 334.5,392.5C 333.094,392.027 332.427,391.027 332.5,389.5 Z"/></g>
<g><path style="opacity:1" fill="#888888" d="M 185.5,389.5 C 185.573,391.027 184.906,392.027 183.5,392.5C 183.427,390.973 184.094,389.973 185.5,389.5 Z"/></g>
<g><path style="opacity:1" fill="#848484" d="M 469.5,393.5 C 469.573,395.027 468.906,396.027 467.5,396.5C 467.427,394.973 468.094,393.973 469.5,393.5 Z"/></g>
<g><path style="opacity:1" fill="#979797" d="M 177.5,399.5 C 177.573,401.027 176.906,402.027 175.5,402.5C 175.427,400.973 176.094,399.973 177.5,399.5 Z"/></g>
<g><path style="opacity:1" fill="#5c5c5c" d="M 171.5,406.5 C 170.089,408.914 168.089,410.581 165.5,411.5C 166.911,409.086 168.911,407.419 171.5,406.5 Z"/></g>
<g><path style="opacity:1" fill="#5d5d5d" d="M 458.5,406.5 C 457.089,408.914 455.089,410.581 452.5,411.5C 453.911,409.086 455.911,407.419 458.5,406.5 Z"/></g>
<g><path style="opacity:1" fill="#7e7e7e" d="M 446.5,415.5 C 446.027,416.906 445.027,417.573 443.5,417.5C 443.973,416.094 444.973,415.427 446.5,415.5 Z"/></g>
<g><path style="opacity:1" fill="#828282" d="M 42.5,418.5 C 44.0269,418.427 45.0269,419.094 45.5,420.5C 43.9731,420.573 42.9731,419.906 42.5,418.5 Z"/></g>
<g><path style="opacity:1" fill="#838383" d="M 329.5,418.5 C 331.027,418.427 332.027,419.094 332.5,420.5C 330.973,420.573 329.973,419.906 329.5,418.5 Z"/></g>
<g><path style="opacity:1" fill="#7e7e7e" d="M 335.5,423.5 C 337.027,423.427 338.027,424.094 338.5,425.5C 336.973,425.573 335.973,424.906 335.5,423.5 Z"/></g>
<g><path style="opacity:1" fill="#8b8b8b" d="M 49.5,424.5 C 51.0269,424.427 52.0269,425.094 52.5,426.5C 50.9731,426.573 49.9731,425.906 49.5,424.5 Z"/></g>
<g><path style="opacity:1" fill="#7b7b7b" d="M 339.5,426.5 C 341.027,426.427 342.027,427.094 342.5,428.5C 340.973,428.573 339.973,427.906 339.5,426.5 Z"/></g>
<g><path style="opacity:1" fill="#949494" d="M 59.5,431.5 C 61.0269,431.427 62.0269,432.094 62.5,433.5C 60.9731,433.573 59.9731,432.906 59.5,431.5 Z"/></g>
<g><path style="opacity:1" fill="#646464" d="M 85.5,443.5 C 88.1522,443.41 90.4855,444.076 92.5,445.5C 89.8478,445.59 87.5145,444.924 85.5,443.5 Z"/></g>
</svg>
