<svg id="Layer_1" data-name="Layer 1" xmlns="http://www.w3.org/2000/svg" viewBox="0 0 19.5 19.5"><defs><style>.cls-1{fill:#222;}</style></defs><path class="cls-1" d="M11,19.75A8.75,8.75,0,1,1,19.75,11,8.76,8.76,0,0,1,11,19.75Zm0-16A7.25,7.25,0,1,0,18.25,11,7.26,7.26,0,0,0,11,3.75Z" transform="translate(-2.25 -2.25)"/><path class="cls-1" d="M21,21.75a.74.74,0,0,1-.53-.22l-4.35-4.35a.75.75,0,1,1,1.06-1.06l4.35,4.35a.75.75,0,0,1,0,1.06A.74.74,0,0,1,21,21.75Z" transform="translate(-2.25 -2.25)"/></svg>