<?xml version="1.0" standalone="no"?>
<!DOCTYPE svg PUBLIC "-//W3C//DTD SVG 20010904//EN"
 "http://www.w3.org/TR/2001/REC-SVG-20010904/DTD/svg10.dtd">
<svg version="1.0" xmlns="http://www.w3.org/2000/svg"
 width="512.000000pt" height="512.000000pt" viewBox="0 0 512.000000 512.000000"
 preserveAspectRatio="xMidYMid meet">
<metadata>
Created by potrace 1.16, written by Peter Selinger 2001-2019
</metadata>
<g transform="translate(0.000000,512.000000) scale(0.100000,-0.100000)"
fill="#000000" stroke="none">
<path d="M152 5020 c-18 -11 -41 -34 -52 -52 -19 -32 -20 -52 -20 -768 0 -716
1 -736 20 -768 30 -48 75 -72 140 -72 65 0 110 24 140 72 19 32 20 52 20 543
l0 510 718 -717 c780 -779 733 -739 832 -725 99 13 157 122 120 224 -6 16
-325 342 -723 741 l-712 712 510 0 c491 0 511 1 543 20 48 30 72 75 72 140 0
65 -24 110 -72 140 -32 19 -52 20 -768 20 -716 0 -736 -1 -768 -20z"/>
<path d="M3432 5020 c-95 -58 -99 -216 -5 -277 25 -17 67 -18 533 -23 l506 -5
-734 -700 c-404 -385 -743 -713 -753 -730 -26 -41 -25 -129 1 -173 11 -18 34
-41 52 -52 44 -27 132 -27 173 -1 17 10 363 337 770 726 l740 707 5 -519 c5
-478 6 -521 23 -546 29 -45 75 -67 137 -67 65 0 110 24 140 72 19 32 20 52 20
768 0 716 -1 736 -20 768 -11 18 -34 41 -52 52 -32 19 -52 20 -768 20 -716 0
-736 -1 -768 -20z"/>
<path d="M3042 2143 c-63 -31 -93 -104 -78 -190 7 -34 88 -119 764 -795 l757
-758 -510 0 c-491 0 -511 -1 -543 -20 -48 -30 -72 -75 -72 -140 0 -65 24 -110
72 -140 32 -19 52 -20 768 -20 716 0 736 1 768 20 18 11 41 34 52 52 19 32 20
52 20 768 0 716 -1 736 -20 768 -30 48 -75 72 -140 72 -65 0 -110 -24 -140
-72 -19 -32 -20 -52 -20 -543 l0 -510 -752 752 c-422 421 -765 757 -781 763
-41 15 -107 12 -145 -7z"/>
<path d="M1850 2069 c-14 -5 -346 -330 -737 -722 l-713 -712 0 510 c0 491 -1
511 -20 543 -30 48 -75 72 -140 72 -65 0 -110 -24 -140 -72 -19 -32 -20 -52
-20 -768 0 -716 1 -736 20 -768 11 -18 34 -41 52 -52 32 -19 52 -20 768 -20
716 0 736 1 768 20 48 30 72 75 72 140 0 65 -24 110 -72 140 -32 19 -52 20
-543 20 l-510 0 717 717 c494 495 719 727 724 746 11 46 -1 122 -24 154 -39
55 -133 79 -202 52z"/>
</g>
</svg>
